<?xml version="1.0" encoding="utf-8"?>
<!-- Generator: Adobe Illustrator 24.0.0, SVG Export Plug-In . SVG Version: 6.00 Build 0)  -->
<svg version="1.1" xmlns="http://www.w3.org/2000/svg" xmlns:xlink="http://www.w3.org/1999/xlink" x="0px" y="0px"
	 viewBox="0 0 500 500" style="enable-background:new 0 0 500 500;" xml:space="preserve">
<style type="text/css">
	.st0{fill:#313B31;}
</style>
<g id="BACKGROUND">
</g>
<g id="OBJECTS">
	<path class="st0" d="M488.49,35.76c-8.94-7.4-21.2-9.37-31.98-5.08c0,0,0,0-0.02,0c-55.43,21.94-202.2,81.71-436.29,177.69
		c-12.82,5.26-20.74,17.62-20.17,31.45c0.57,13.85,9.46,25.52,22.67,29.73l103.03,32.8l38.07,116.49c0.02,0.06,0.06,0.11,0.08,0.17
		l0.08,0.25c3.17,9.76,10.96,17.28,20.79,20.12c0.85,0.25,1.72,0.2,2.58,0.37c0.14,0.03,0.26,0.11,0.4,0.13c0.02,0,0.02,0,0.02,0
		c0.47,0.08,0.96,0.08,1.44,0.13c1.4,0.19,2.78,0.6,4.19,0.6c7.1,0,14.08-2.46,19.71-7.1l51.62-42.61
		c34.2,25.34,72.61,53.77,98.14,72.63c7.17,5.28,15.64,8.02,24.21,8.02c5.01,0,10.06-0.92,14.89-2.83
		c13.14-5.1,22.58-16.43,25.25-30.25l72.22-372.2C501.63,54.87,497.42,43.18,488.49,35.76z M160.86,296.19L272,229.71l-83.76,78.66
		c-0.66,0.62-1.01,1.45-1.55,2.15c-0.49,0.61-0.93,1.16-1.33,1.83c-1.44,2.43-2.5,5.05-2.66,7.92c-0.64,11.75-1.4,24.16-2.2,36.05
		l-11.38-34.81L160.86,296.19z M213.79,387.2c0.07-0.89,0.15-1.96,0.22-2.89c0.19-2.39,0.38-4.87,0.57-7.51
		c0.08-1.13,0.17-2.34,0.25-3.52c0.22-3.13,0.45-6.41,0.67-9.88c0.06-0.93,0.12-1.88,0.18-2.83c0.12-1.92,0.24-3.69,0.37-5.71
		c5.76,4.27,12.43,9.21,19.45,14.41L213.79,387.2z M392.56,431.77c-0.51,2.6-2.34,3.68-3.4,4.09c-1.08,0.41-3.19,0.87-5.35-0.71
		c-42.7-31.54-121.56-89.99-156.01-115.52l177.44-166.65c7.1-6.73,8.02-17.69,2.11-25.48c-5.47-7.19-17.39-9.56-25.09-4.87
		L137.48,269.06l-96.98-30.9C262.56,147.13,404.8,89.19,463.56,65.83L392.56,431.77z"/>
</g>
<g id="DESIGNED_BY_FREEPIK_1_">
</g>
</svg>
